/* XPM */
static char * nginx_xpm[] = {
"32 32 2 2",
/* colors */
"   c none",
"GG c #009900",
/* pixels */
"                                                                ",
"                                                                ",
"                                                                ",
"                                                                ",
"                  GGGGGGGGGGGGGGGGGGGGGGGGGGGG                  ",
"                GGGGGGGGGGGGGGGGGGGGGGGGGGGGGGGG                ",
"                GGGGGGGGGGGGGGGGGGGGGGGGGGGGGGGG                ",
"              GGGGGGGGGGGGGGGGGGGGGGGGGGGGGGGGGGGG              ",
"              GGGGGGGGGGGGGGGGGGGGGGGGGGGGGGGGGGGG              ",
"            GGGGGGGGGG                    GGGGGGGGGG            ",
"            GGGGGGGGGG                    GGGGGGGGGG            ",
"          GGGGGGGGGG                        GGGGGGGGGG          ",
"          GGGGGGGGGG                        GGGGGGGGGG          ",
"        GGGGGGGGGG                                              ",
"        GGGGGGGGGG                                              ",
"      GGGGGGGGGG            GGGGGGGGGGGGGGGGGGGGGGGGGGGGGG      ",
"      GGGGGGGGGG          GGGGGGGGGGGGGGGGGGGGGGGGGGGGGGGG      ",
"        GGGGGGGGGG        GGGGGGGGGGGGGGGGGGGGGGGGGGGGGG        ",
"        GGGGGGGGGG        GGGGGGGGGGGGGGGGGGGGGGGGGGGGGG        ",
"          GGGGGGGGGG        GGGGGGGGGGGGGGGGGGGGGGGGGG          ",
"          GGGGGGGGGG                        GGGGGGGGGG          ",
"            GGGGGGGGGG                    GGGGGGGGGG            ",
"            GGGGGGGGGG                    GGGGGGGGGG            ",
"              GGGGGGGGGGGGGGGGGGGGGGGGGGGGGGGGGGGG              ",
"              GGGGGGGGGGGGGGGGGGGGGGGGGGGGGGGGGGGG              ",
"                GGGGGGGGGGGGGGGGGGGGGGGGGGGGGGGG                ",
"                GGGGGGGGGGGGGGGGGGGGGGGGGGGGGGGG                ",
"                  GGGGGGGGGGGGGGGGGGGGGGGGGGGG                  ",
"                                                                ",
"                                                                ",
"                                                                ",
"                                                                "
