/* XPM */
static char * nginx_xpm[] = {
"48 48 2 2",
/* colors */
"   c none",
"GG c #009900",
/* pixels */
"                                                                                                ",
"                                                                                                ",
"                                                                                                ",
"                                                                                                ",
"                                                                                                ",
"                        GGGGGGGGGGGGGGGGGGGGGGGGGGGGGGGGGGGGGGGGGGGGGGGG                        ",
"                        GGGGGGGGGGGGGGGGGGGGGGGGGGGGGGGGGGGGGGGGGGGGGGGG                        ",
"                      GGGGGGGGGGGGGGGGGGGGGGGGGGGGGGGGGGGGGGGGGGGGGGGGGGGG                      ",
"                      GGGGGGGGGGGGGGGGGGGGGGGGGGGGGGGGGGGGGGGGGGGGGGGGGGGG                      ",
"                    GGGGGGGGGGGGGGGGGGGGGGGGGGGGGGGGGGGGGGGGGGGGGGGGGGGGGGGG                    ",
"                    GGGGGGGGGGGGGGGGGGGGGGGGGGGGGGGGGGGGGGGGGGGGGGGGGGGGGGGG                    ",
"                  GGGGGGGGGGGGGGGGGGGGGGGGGGGGGGGGGGGGGGGGGGGGGGGGGGGGGGGGGGGG                  ",
"                  GGGGGGGGGGGGGGGG                            GGGGGGGGGGGGGGGG                  ",
"                GGGGGGGGGGGGGGGG                                GGGGGGGGGGGGGGGG                ",
"                GGGGGGGGGGGGGGGG                                GGGGGGGGGGGGGGGG                ",
"              GGGGGGGGGGGGGGGG                                    GGGGGGGGGGGGGGGG              ",
"              GGGGGGGGGGGGGGGG                                    GGGGGGGGGGGGGGGG              ",
"            GGGGGGGGGGGGGGGG                                        GGGGGGGGGGGGGGGG            ",
"            GGGGGGGGGGGGGGGG                                        GGGGGGGGGGGGGGGG            ",
"          GGGGGGGGGGGGGGGG                                            GGGGGGGGGGGGGGGG          ",
"          GGGGGGGGGGGGGGGG                                                                      ",
"        GGGGGGGGGGGGGGGG                                                                        ",
"        GGGGGGGGGGGGGGGG                                                                        ",
"      GGGGGGGGGGGGGGGG                    GGGGGGGGGGGGGGGGGGGGGGGGGGGGGGGGGGGGGGGGGGGGGGGG      ",
"      GGGGGGGGGGGGGGGG                  GGGGGGGGGGGGGGGGGGGGGGGGGGGGGGGGGGGGGGGGGGGGGGGGGG      ",
"        GGGGGGGGGGGGGGGG              GGGGGGGGGGGGGGGGGGGGGGGGGGGGGGGGGGGGGGGGGGGGGGGGGG        ",
"        GGGGGGGGGGGGGGGG              GGGGGGGGGGGGGGGGGGGGGGGGGGGGGGGGGGGGGGGGGGGGGGGGGG        ",
"          GGGGGGGGGGGGGGGG            GGGGGGGGGGGGGGGGGGGGGGGGGGGGGGGGGGGGGGGGGGGGGGGG          ",
"          GGGGGGGGGGGGGGGG              GGGGGGGGGGGGGGGGGGGGGGGGGGGGGGGGGGGGGGGGGGGGGG          ",
"            GGGGGGGGGGGGGGGG              GGGGGGGGGGGGGGGGGGGGGGGGGGGGGGGGGGGGGGGGGG            ",
"            GGGGGGGGGGGGGGGG                                        GGGGGGGGGGGGGGGG            ",
"              GGGGGGGGGGGGGGGG                                    GGGGGGGGGGGGGGGG              ",
"              GGGGGGGGGGGGGGGG                                    GGGGGGGGGGGGGGGG              ",
"                GGGGGGGGGGGGGGGG                                GGGGGGGGGGGGGGGG                ",
"                GGGGGGGGGGGGGGGG                                GGGGGGGGGGGGGGGG                ",
"                  GGGGGGGGGGGGGGGG                            GGGGGGGGGGGGGGGG                  ",
"                  GGGGGGGGGGGGGGGGGGGGGGGGGGGGGGGGGGGGGGGGGGGGGGGGGGGGGGGGGGGG                  ",
"                    GGGGGGGGGGGGGGGGGGGGGGGGGGGGGGGGGGGGGGGGGGGGGGGGGGGGGGGG                    ",
"                    GGGGGGGGGGGGGGGGGGGGGGGGGGGGGGGGGGGGGGGGGGGGGGGGGGGGGGGG                    ",
"                      GGGGGGGGGGGGGGGGGGGGGGGGGGGGGGGGGGGGGGGGGGGGGGGGGGGG                      ",
"                      GGGGGGGGGGGGGGGGGGGGGGGGGGGGGGGGGGGGGGGGGGGGGGGGGGGG                      ",
"                        GGGGGGGGGGGGGGGGGGGGGGGGGGGGGGGGGGGGGGGGGGGGGGGG                        ",
"                        GGGGGGGGGGGGGGGGGGGGGGGGGGGGGGGGGGGGGGGGGGGGGGGG                        ",
"                                                                                                ",
"                                                                                                ",
"                                                                                                ",
"                                                                                                ",
"                                                                                                ",
